<?xml version="1.0" standalone="no"?>
<!DOCTYPE svg PUBLIC "-//W3C//DTD SVG 20010904//EN"
 "http://www.w3.org/TR/2001/REC-SVG-20010904/DTD/svg10.dtd">
<svg version="1.0" xmlns="http://www.w3.org/2000/svg"
 width="512.000000pt" height="512.000000pt" viewBox="0 0 512.000000 512.000000"
 preserveAspectRatio="xMidYMid meet">
<metadata>
Created by potrace 1.14, written by Peter Selinger 2001-2017
</metadata>
<g transform="translate(0.000000,512.000000) scale(0.100000,-0.100000)"
fill="#000000" stroke="none">
<path d="M252 4783 c-18 -9 -45 -32 -60 -51 -22 -28 -27 -46 -27 -92 0 -47 5
-63 29 -94 15 -21 40 -43 54 -49 17 -7 106 -14 231 -17 l204 -5 4 -25 c3 -21
42 -238 57 -320 3 -14 7 -38 10 -55 11 -64 26 -151 31 -175 5 -23 68 -372 80
-445 3 -16 14 -75 25 -130 16 -89 28 -149 36 -195 1 -8 5 -31 8 -50 3 -19 9
-48 12 -65 3 -16 32 -178 65 -360 33 -181 62 -341 64 -355 3 -14 8 -41 11 -60
3 -19 9 -51 14 -70 4 -19 12 -57 16 -85 8 -56 10 -65 20 -115 4 -19 8 -44 10
-55 1 -11 5 -31 8 -45 3 -14 9 -45 12 -70 3 -25 8 -47 9 -50 2 -3 6 -26 10
-50 4 -25 15 -85 25 -134 10 -49 16 -96 13 -103 -3 -8 -23 -33 -45 -56 -22
-23 -57 -78 -79 -123 -176 -363 75 -785 476 -800 113 -4 169 8 271 56 139 67
244 191 289 340 28 93 27 253 -3 335 -12 32 -22 61 -22 62 0 2 239 3 531 3
502 0 531 -1 524 -17 -38 -97 -53 -244 -34 -338 18 -83 82 -204 141 -266 50
-52 137 -119 155 -119 4 0 21 -7 38 -16 46 -24 134 -41 211 -42 324 -3 586
277 560 598 -12 143 -64 257 -164 357 -65 65 -188 135 -262 148 -19 3 -44 8
-55 10 -11 2 -516 4 -1121 4 l-1102 1 -6 25 c-4 15 -13 63 -21 108 -8 45 -17
93 -20 107 -9 45 -25 134 -30 175 -3 22 -8 46 -10 53 -4 9 237 12 1178 13 650
0 1190 2 1201 4 145 28 251 90 327 195 41 55 74 140 85 215 1 11 21 119 44
240 23 121 50 267 60 325 10 58 44 242 75 410 31 168 59 319 62 337 13 73 -28
152 -94 179 -27 12 -314 14 -1663 14 -1545 0 -1630 1 -1631 18 0 9 -2 24 -4
32 -2 8 -13 65 -24 125 -11 61 -22 119 -24 130 -3 11 -10 54 -17 95 -34 213
-66 278 -167 347 -64 44 -117 52 -350 52 -184 1 -223 -2 -251 -16z m3872
-1125 c-2 -13 -8 -48 -14 -78 -6 -30 -12 -66 -15 -80 -3 -14 -8 -41 -11 -60
-3 -19 -12 -69 -20 -110 -7 -41 -16 -86 -18 -100 -7 -45 -49 -269 -61 -330 -6
-31 -14 -75 -21 -120 -16 -101 -56 -285 -64 -301 -6 -10 -27 -31 -47 -46 l-36
-28 -1217 -3 -1217 -2 -11 62 c-6 35 -13 74 -16 88 -6 30 -69 381 -97 535 -11
61 -29 160 -40 220 -12 61 -22 119 -24 130 -3 21 -31 182 -39 223 l-5 22 1489
0 1489 0 -5 -22z m-2422 -2402 c172 -82 183 -318 19 -422 -39 -25 -56 -29
-116 -29 -79 0 -122 16 -171 64 -110 108 -90 292 41 374 22 14 49 27 60 30 38
10 130 0 167 -17z m2083 1 c79 -43 135 -133 135 -217 0 -57 -29 -125 -72 -168
-125 -127 -345 -73 -395 97 -39 135 29 258 167 304 30 10 136 -1 165 -16z"/>
</g>
</svg>
